<?xml version="1.0" encoding="utf-8"?>
<!-- Generator: Adobe Illustrator 24.3.0, SVG Export Plug-In . SVG Version: 6.00 Build 0)  -->
<svg version="1.1" id="Layer_1" xmlns="http://www.w3.org/2000/svg" xmlns:xlink="http://www.w3.org/1999/xlink" x="0px" y="0px"
	 viewBox="0 0 124.4 116.7" style="enable-background:new 0 0 124.4 116.7;" xml:space="preserve">
<style type="text/css">
	.st0{fill:#34B5A8;}
	.st1{fill:none;stroke:#34B5A8;stroke-width:2;stroke-linecap:round;stroke-linejoin:round;stroke-miterlimit:10;}
	.st2{fill:none;}
</style>
<g>
	<path class="st0" d="M63.4,83.7c-0.3,0-0.5-0.1-0.7-0.3l-4.2-4.2c-0.2-0.2-0.4-0.2-0.6,0c-0.4,0.4-1,0.4-1.4,0
		c-0.4-0.4-0.4-1,0-1.4c0.9-0.9,2.4-0.9,3.4,0l3.5,3.5l4.8-4.8l-3.4-3.4C64.3,72.6,64,72,64,71.3c0-0.7,0.3-1.3,0.7-1.7
		c0.4-0.4,1-0.4,1.4,0c0.4,0.4,0.4,1,0,1.4C66,71.1,66,71.3,66,71.3s0,0.2,0.1,0.3l4.1,4.1c0.4,0.4,0.4,1,0,1.4l-6.2,6.2
		C63.9,83.6,63.6,83.7,63.4,83.7z"/>
</g>
<path class="st1" d="M63.4,86.2"/>
<path class="st1" d="M89.5,115c-2.4,0-4.7-0.9-6.4-2.6L62.8,92.1c-2.4-2.4-2.4-6.4,0-8.8l7.3-7.3c2.4-2.4,6.4-2.4,8.8,0l20.3,20.3
	c3.5,3.5,3.5,9.3,0,12.8l-3.3,3.3C94.2,114,91.9,115,89.5,115z"/>
<g>
	<path class="st1" d="M98.6,16.2L98.6,16.2c-5.2,0.1-9.3,4.3-9.2,9.4c0.1,5.1,4.2,9.1,9.2,9.2h0.1c5.1,0,9.3-4.2,9.2-9.3
		c0,0,0,0,0,0l0,0C107.8,20.4,103.7,16.2,98.6,16.2L98.6,16.2z"/>
	<path class="st1" d="M89.2,40.8c0.2,0,0.4,0.1,0.6,0.2c1.3,0.8,2.8,1.4,4.3,1.8c0.4,0.1,0.7,0.4,0.8,0.8l1.5,5.5l4.6,0l1.4-5.5
		c0.1-0.4,0.4-0.7,0.8-0.8c1.5-0.4,2.9-1,4.3-1.8c0.4-0.2,0.8-0.2,1.2,0l5,2.9l3.3-3.3l-2.9-4.9c-0.2-0.4-0.2-0.8,0-1.2
		c0.8-1.3,1.4-2.8,1.8-4.3c0.1-0.4,0.4-0.7,0.8-0.8l5.5-1.5l0-4.6l-5.6-1.4c-0.4-0.1-0.7-0.4-0.8-0.8c-0.4-1.5-1-2.9-1.8-4.3
		c-0.2-0.4-0.2-0.8,0-1.2l2.9-5l-3.3-3.3l-4.9,2.9c-0.4,0.2-0.8,0.2-1.2,0c-1.3-0.8-2.8-1.4-4.3-1.8c-0.4-0.1-0.7-0.4-0.8-0.8
		L100.8,2l-4.6,0l-1.4,5.5c-0.1,0.4-0.4,0.7-0.8,0.8c-1.5,0.4-2.9,1-4.3,1.8c-0.4,0.2-0.8,0.2-1.2,0l-5-2.9l-3.2,3.3l2.9,4.9
		c0.2,0.4,0.2,0.8,0,1.2c-0.8,1.3-1.4,2.8-1.8,4.3c-0.1,0.4-0.4,0.7-0.8,0.8L75,23.3l0,4.6l5.5,1.4c0.4,0.1,0.7,0.4,0.8,0.8
		c0.4,1.5,1,2.9,1.8,4.3c0.2,0.4,0.2,0.8,0,1.2l-2.9,5l3.3,3.2l4.9-2.9C88.8,40.9,89,40.8,89.2,40.8L89.2,40.8z"/>
</g>
<g>
	<g>
		<path class="st2" d="M64.5,55.3c0.1,0.6,0.2,1.2,0.4,1.7c0.4-1.9,0.7-3.9,0.7-5.9C64.8,52.2,64.3,53.7,64.5,55.3z"/>
		<path class="st0" d="M62.5,55.5c0.2,1.6,0.8,3,1.7,4.1c0.3-0.9,0.5-1.7,0.7-2.6c-0.2-0.5-0.4-1.1-0.4-1.7
			c-0.2-1.6,0.3-3.1,1.2-4.2c0-0.1,0-0.3,0-0.4c0-0.8,0-1.6-0.1-2.3C63.4,50,62.2,52.6,62.5,55.5z"/>
		<path class="st0" d="M78.4,53.8c-0.1-0.8-0.3-1.5-0.6-2.3c-1-2.3-3-4-5.3-4.6c0.1,0.7,0.1,1.4,0.2,2.1c1.5,0.6,2.7,1.7,3.3,3.2
			c0.2,0.5,0.4,1.1,0.4,1.7c0.2,1.6-0.3,3.2-1.3,4.4c-1,1.2-2.3,2-3.9,2.2c-0.2,0.7-0.4,1.4-0.7,2c0.2,0,0.5,0,0.7,0
			c2.1-0.2,4-1.3,5.4-2.9C78,58,78.6,55.9,78.4,53.8z"/>
		<path class="st0" d="M65.8,61.1c0.8,0.6,1.8,1,2.8,1.3c0.2-0.6,0.5-1.2,0.7-1.9c-1-0.2-2-0.7-2.8-1.4C66.2,59.7,66,60.4,65.8,61.1
			z"/>
		<path class="st0" d="M69.6,46.7c-0.8,0.1-1.5,0.3-2.2,0.6c0.1,0.7,0.1,1.4,0.2,2.1c0.7-0.4,1.4-0.6,2.2-0.7c0.3,0,0.5,0,0.8,0
			c0-0.7-0.1-1.3-0.2-2C70.1,46.7,69.9,46.7,69.6,46.7L69.6,46.7z"/>
		<path class="st0" d="M71.1,60.6c-0.6,0.1-1.3,0-1.9-0.1c-0.2,0.6-0.4,1.3-0.7,1.9c0.6,0.2,1.2,0.2,1.9,0.2c0,0,0.1,0,0.1,0
			c0.2-0.7,0.5-1.3,0.7-2C71.2,60.6,71.1,60.6,71.1,60.6z"/>
		<path class="st0" d="M70.4,46.7c0.1,0.7,0.1,1.3,0.2,2c0.7,0,1.4,0.1,2,0.4c0-0.7-0.1-1.4-0.2-2.1C71.8,46.8,71.1,46.7,70.4,46.7z
			"/>
		<path class="st0" d="M65.5,48.3c0.1,0.8,0.1,1.5,0.1,2.3c0,0.1,0,0.3,0,0.4c0.5-0.7,1.2-1.3,2-1.7c0-0.7-0.1-1.4-0.2-2.1
			C66.7,47.5,66.1,47.9,65.5,48.3z"/>
		<path class="st0" d="M64.9,57c-0.2,0.9-0.4,1.7-0.7,2.6c0.5,0.6,1,1.1,1.6,1.5c0.2-0.7,0.5-1.3,0.7-2C65.8,58.5,65.3,57.8,64.9,57
			z"/>
	</g>
	<g>
		<path class="st2" d="M61.7,69.6l0.2-1.3c-0.9,1.3-1.9,2.4-3,3.6c-5.6,5.6-13.3,8.8-21.1,8.8c0,0,0,0-0.1,0c-8,0-15.5-3.1-21.2-8.8
			c-5.7-5.7-8.8-13.2-8.8-21.2c0-8,3.1-15.5,8.8-21.2c5.7-5.6,13.2-8.8,21.2-8.8c0,0,0,0,0,0c8,0,15.5,3.1,21.2,8.8
			c2.4,2.4,4.4,5.2,5.8,8.1l0.2-0.1c0.4-0.2,0.9-0.1,1.2,0.3l2.5,3.2c0.3,0,0.5,0,0.8-0.1c-1.6-5.1-4.3-9.8-8.2-13.6
			c-6.2-6.2-14.5-9.7-23.3-9.7c0,0-0.1,0-0.1,0c-8.7,0-17.1,3.5-23.2,9.7c-6.2,6.2-9.7,14.5-9.7,23.3c0,8.8,3.4,17.1,9.7,23.3
			C27.2,86.9,48.1,86.9,61,74c0.9-0.9,1.7-1.9,2.5-2.8l-1.2-0.5C61.9,70.5,61.7,70.1,61.7,69.6z"/>
		<path class="st2" d="M59.6,63.1l-4,0.5c-0.4,0.1-0.9-0.2-1.1-0.6l-1.2-2.8c-0.2-0.4-0.1-0.9,0.3-1.2l3.2-2.5
			c-0.1-1.3-0.1-2.5,0-3.7l-3.2-2.5c-0.4-0.3-0.5-0.7-0.3-1.2l1.1-2.8c0.2-0.4,0.6-0.7,1-0.6l4,0.5c0.8-1,1.6-1.8,2.6-2.6l-0.5-4
			c-0.1-0.4,0.2-0.9,0.6-1.1l0.8-0.3c-1.3-2.8-3.1-5.3-5.4-7.5c-5.3-5.3-12.3-8.2-19.8-8.2c0,0,0,0,0,0c-7.5,0-14.5,2.9-19.8,8.2
			c-5.3,5.3-8.2,12.3-8.2,19.8s2.9,14.5,8.2,19.8c5.3,5.3,12.3,8.2,19.8,8.2c0,0,0,0,0,0c7.3,0,14.5-3,19.7-8.2
			c1.6-1.6,3-3.4,4.2-5.3C60.9,64.5,60.2,63.8,59.6,63.1z"/>
		<path class="st0" d="M63.5,71.1c-0.8,1-1.6,1.9-2.5,2.8c-12.9,12.9-33.8,12.9-46.7,0c-6.2-6.2-9.7-14.5-9.7-23.3
			c0-8.8,3.4-17.1,9.7-23.3c6.1-6.1,14.6-9.7,23.2-9.7c0,0,0.1,0,0.1,0c8.8,0,17.1,3.4,23.3,9.7c3.9,3.9,6.7,8.6,8.2,13.6
			c0.7,0,1.4-0.1,2.1,0c-1.6-5.6-4.6-10.8-8.9-15C55.8,19.3,47,15.7,37.7,15.7c0,0-0.1,0-0.1,0c-9.2,0-18.2,3.7-24.6,10.2
			c-13.6,13.6-13.6,35.8,0,49.5c6.8,6.8,15.8,10.2,24.7,10.2c9,0,17.9-3.4,24.7-10.2c1.1-1.1,2.1-2.3,3.1-3.5c-0.1,0-0.2,0-0.3-0.1
			L63.5,71.1z"/>
		<path class="st0" d="M61.6,65.1c-1.2,1.9-2.5,3.7-4.2,5.3c-5.2,5.2-12.4,8.2-19.7,8.2c0,0,0,0,0,0c-7.5,0-14.5-2.9-19.8-8.2
			c-5.3-5.3-8.2-12.3-8.2-19.8s2.9-14.5,8.2-19.8c5.3-5.3,12.3-8.2,19.8-8.2c0,0,0,0,0,0c7.5,0,14.5,2.9,19.8,8.2
			c2.2,2.2,4,4.8,5.4,7.5l1.8-0.8c-1.4-3-3.4-5.7-5.8-8.1c-5.7-5.7-13.2-8.8-21.2-8.8c0,0,0,0,0,0c-8,0-15.5,3.1-21.2,8.8
			c-5.7,5.7-8.8,13.2-8.8,21.2c0,8,3.1,15.5,8.8,21.2c5.7,5.7,13.2,8.8,21.2,8.8c0,0,0,0,0.1,0c7.9,0,15.6-3.2,21.1-8.8
			c1.1-1.1,2.1-2.3,3-3.6l0.3-2.6C62,65.5,61.8,65.3,61.6,65.1z"/>
		<path class="st0" d="M87.3,58.8L84,56.3c0.1-1.2,0.1-2.4,0-3.7l3.2-2.5c0.4-0.3,0.5-0.8,0.3-1.2l-1.2-2.8
			c-0.2-0.4-0.6-0.7-1.1-0.6l-4,0.5c-0.7-0.9-1.6-1.8-2.6-2.6l0.5-4c0.1-0.4-0.2-0.9-0.6-1l-2.8-1.1c-0.4-0.2-0.9,0-1.2,0.3L72.1,41
			c-0.3,0-0.5-0.1-0.8-0.1c0.2,0.7,0.4,1.3,0.5,2c0,0,0,0,0.1,0c0.7,0.1,1.5-0.2,1.9-0.8l1.9-2.6l1.4,0.6l-0.4,3.2
			c-0.1,0.7,0.2,1.5,0.8,1.9c0.8,0.6,1.6,1.3,2.2,2.1c0.5,0.6,1.2,0.9,1.9,0.8l3.2-0.5l0.6,1.4l-2.6,2c-0.6,0.5-0.9,1.2-0.8,1.9
			c0.1,1,0.2,2,0,3.1c-0.1,0.7,0.2,1.5,0.8,1.9l2.6,1.9l-0.6,1.4l-3.2-0.4c-0.7-0.1-1.5,0.2-1.9,0.8c-0.6,0.8-1.3,1.6-2.1,2.2
			c-0.6,0.5-0.9,1.2-0.8,1.9l0.5,3.2L76,69.6L74,67c-0.4-0.6-1.1-0.9-1.9-0.8c0,0-0.1,0-0.1,0c-1,0.1-2,0.2-3.1,0c0,0,0,0,0,0
			c-1,2-2.2,3.8-3.5,5.6c0,0,0,0,0,0c0.3,0,0.6-0.1,0.8-0.4l2.5-3.2c1.2,0.1,2.4,0.1,3.6,0l0,0l-0.2-1l0.2,1l2.5,3.2
			c0.3,0.4,0.8,0.5,1.2,0.3l2.8-1.2c0.4-0.2,0.7-0.6,0.6-1.1l-0.5-4c0.9-0.7,1.8-1.6,2.6-2.6l4,0.5c0.4,0.1,0.9-0.2,1-0.6l1.1-2.8
			C87.8,59.5,87.6,59,87.3,58.8z"/>
		<path class="st0" d="M64.2,65.9c0-0.4,0-0.7-0.1-1c-0.6,1.2-1.4,2.3-2.2,3.4l-0.2,1.3c-0.1,0.4,0.2,0.9,0.6,1l1.2,0.5
			c0.4-0.5,0.8-1.1,1.2-1.6l-1-0.4L64.2,65.9z"/>
		<path class="st0" d="M66,37.9c-0.3-0.4-0.8-0.5-1.2-0.3l-0.2,0.1c0.6,1.1,1,2.3,1.4,3.5l0.8,1c0.4,0.6,1.2,0.9,1.9,0.8
			c0.3,0,0.6-0.1,0.9-0.1c-0.2-0.7-0.3-1.3-0.5-2c-0.3,0-0.5,0-0.8,0.1L66,37.9z"/>
		<path class="st0" d="M62,38.7c-0.4,0.2-0.7,0.6-0.6,1.1l0.5,4c-0.9,0.7-1.8,1.6-2.6,2.6l-4-0.5c-0.5-0.1-0.9,0.2-1,0.6l-1.1,2.8
			c-0.2,0.4,0,0.9,0.3,1.2l3.2,2.5c-0.1,1.2-0.1,2.4,0,3.7l-3.2,2.5c-0.4,0.3-0.5,0.8-0.3,1.2l1.2,2.8c0.2,0.4,0.6,0.7,1.1,0.6
			l4-0.5c0.6,0.7,1.3,1.4,2,2c0.4-0.6,0.7-1.2,1-1.8c-0.5-0.5-1-0.9-1.4-1.5c-0.5-0.6-1.2-0.9-1.9-0.8l-3.2,0.5l-0.6-1.4l2.6-2
			c0.6-0.5,0.9-1.2,0.8-1.9c-0.1-1-0.2-2,0-3.1c0.1-0.7-0.2-1.5-0.8-1.9l-2.6-1.9l0.6-1.4l3.2,0.4c0.7,0.1,1.5-0.2,1.9-0.8
			c0.6-0.8,1.3-1.6,2.1-2.2c0.6-0.5,0.9-1.2,0.8-1.9l-0.5-3.2l0.1,0c-0.2-0.6-0.5-1.2-0.8-1.8L62,38.7z"/>
		<path class="st0" d="M69.2,41c0.2,0.7,0.4,1.3,0.5,2c0.7,0,1.4,0,2.1,0c-0.2-0.7-0.3-1.4-0.5-2C70.6,40.9,69.9,40.9,69.2,41z"/>
		<path class="st0" d="M67.1,67.1l-1.9,2.6l-0.4-0.2c-0.4,0.6-0.8,1.1-1.2,1.6l1.6,0.6c0.1,0,0.2,0.1,0.3,0.1
			c1.3-1.8,2.5-3.6,3.5-5.6C68.3,66.2,67.5,66.5,67.1,67.1z"/>
		<path class="st0" d="M63.4,64c-0.3-0.2-0.5-0.4-0.8-0.7c-0.3,0.6-0.6,1.2-1,1.8c0.2,0.2,0.4,0.4,0.6,0.5l-0.3,2.6
			c0.8-1.1,1.5-2.2,2.2-3.4C63.9,64.5,63.7,64.2,63.4,64z"/>
		<path class="st0" d="M63.6,40.2l1.3-0.5l1.2,1.5c-0.4-1.2-0.9-2.4-1.4-3.5l-1.8,0.8C63.1,39,63.4,39.6,63.6,40.2z"/>
	</g>
</g>
<line class="st1" x1="17.5" y1="30.2" x2="48.4" y2="30.2"/>
<line class="st1" x1="8.9" y1="47.5" x2="48.4" y2="47.5"/>
<line class="st1" x1="14.2" y1="64.9" x2="48.4" y2="64.9"/>
</svg>
